grf
version=1
nRows=7
nColumns=37
inDegrees=no
endheader
time	ground_force_1_vx	ground_force_1_vy	ground_force_1_vz	ground_force_1_px	ground_force_1_py	ground_force_1_pz	ground_moment_1_mx	ground_moment_1_my	ground_moment_1_mz	ground_force_2_vx	ground_force_2_vy	ground_force_2_vz	ground_force_2_px	ground_force_2_py	ground_force_2_pz	ground_moment_2_mx	ground_moment_2_my	ground_moment_2_mz	ground_force_3_vx	ground_force_3_vy	ground_force_3_vz	ground_force_3_px	ground_force_3_py	ground_force_3_pz	ground_moment_3_mx	ground_moment_3_my	ground_moment_3_mz	ground_force_4_vx	ground_force_4_vy	ground_force_4_vz	ground_force_4_px	ground_force_4_py	ground_force_4_pz	ground_moment_4_mx	ground_moment_4_my	ground_moment_4_mz
      0.00000000	      0.00000000	     -0.00000000	      0.00000000	      0.00000000	      0.00000000	      0.00000000	      0.00000000	      0.00000000	      0.00000000	      2.99677396	     36.76042938	   -470.48678589	   -291.00427213	  -1041.50273171	      0.00000000	      0.00000000	      0.00000000	   2589.34144664	     -0.09950882	    -42.98680495	   -431.55139160	   -288.16615211	   -710.15991984	      0.00000000	      0.00000000	     -0.00000000	  -3650.34656499	      0.00000000	     -0.00000000	      0.00000000	      0.00000000	      0.00000000	      0.00000000	      0.00000000	      0.00000000	      0.00000000
      0.01000000	      0.00000000	     -0.00000000	      0.00000000	      0.00000000	      0.00000000	      0.00000000	      0.00000000	      0.00000000	      0.00000000	      3.49168158	     36.72172546	   -469.67996216	   -291.42871931	  -1040.81418362	      0.00000000	      0.00000000	      0.00000000	   2702.17225395	     -0.17742535	    -43.18930815	   -432.00708008	   -288.20786664	   -710.08717363	      0.00000000	      0.00000000	     -0.00000000	  -3583.25956910	      0.00000000	     -0.00000000	      0.00000000	      0.00000000	      0.00000000	      0.00000000	      0.00000000	      0.00000000	      0.00000000
      0.02000000	      0.00000000	     -0.00000000	      0.00000000	      0.00000000	      0.00000000	      0.00000000	      0.00000000	      0.00000000	      0.00000000	      3.19825578	     36.36520386	   -469.07302856	   -291.04288197	  -1041.60701125	      0.00000000	      0.00000000	      0.00000000	   2563.99569089	      0.27885164	    -42.83636859	   -435.54232788	   -287.74796758	   -708.80277473	      0.00000000	      0.00000000	     -0.00000000	  -3499.08011846	      0.00000000	     -0.00000000	      0.00000000	      0.00000000	      0.00000000	      0.00000000	      0.00000000	      0.00000000	      0.00000000
      0.03000000	      0.00000000	     -0.00000000	      0.00000000	      0.00000000	      0.00000000	      0.00000000	      0.00000000	      0.00000000	      0.00000000	      3.27421832	     36.70920944	   -468.26699829	   -291.53952761	  -1041.46365262	      0.00000000	      0.00000000	      0.00000000	   2757.79855712	      0.43094642	    -43.18930820	   -436.09039307	   -288.61960431	   -709.28026630	      0.00000000	      0.00000000	     -0.00000000	  -3610.08410457	      0.00000000	     -0.00000000	      0.00000000	      0.00000000	      0.00000000	      0.00000000	      0.00000000	      0.00000000	      0.00000000
      0.04000000	      0.00000000	     -0.00000000	      0.00000000	      0.00000000	      0.00000000	      0.00000000	      0.00000000	      0.00000000	      0.00000000	      3.79878783	     36.15986633	   -466.95306396	   -291.45497996	  -1042.00200077	      0.00000000	      0.00000000	      0.00000000	   2865.39709712	      0.25363085	    -43.30251314	   -436.73950195	   -288.98311997	   -709.42992743	      0.00000000	      0.00000000	     -0.00000000	  -3562.00304680	      0.00000000	     -0.00000000	      0.00000000	      0.00000000	      0.00000000	      0.00000000	      0.00000000	      0.00000000	      0.00000000
      0.05000000	      0.00000000	     -0.00000000	      0.00000000	      0.00000000	      0.00000000	      0.00000000	      0.00000000	      0.00000000	      0.00000000	      3.05771708	     36.40201187	   -465.53976440	   -292.15774647	  -1040.92854148	      0.00000000	      0.00000000	      0.00000000	   2714.20657035	      0.20434375	    -43.49338533	   -436.23629761	   -288.91874810	   -709.55650594	      0.00000000	      0.00000000	     -0.00000000	  -3629.42475862	      0.00000000	     -0.00000000	      0.00000000	      0.00000000	      0.00000000	      0.00000000	      0.00000000	      0.00000000	      0.00000000
      0.06000000	      0.00000000	     -0.00000000	      0.00000000	      0.00000000	      0.00000000	      0.00000000	      0.00000000	      0.00000000	      0.00000000	      3.21157837	     36.21123505	   -466.13314819	   -291.66012500	  -1041.89183411	      0.00000000	      0.00000000	      0.00000000	   2674.54433181	      0.10094231	    -43.65527726	   -437.13781738	   -289.39468725	   -708.89214518	      0.00000000	     -0.00000000	     -0.00000000	  -3634.05422870	      0.00000000	     -0.00000000	      0.00000000	      0.00000000	      0.00000000	      0.00000000	      0.00000000	      0.00000000	      0.00000000
